<?xml version="1.0" encoding="UTF-8" standalone="no"?>
<!-- Created with Inkscape (http://www.inkscape.org/) -->

<svg
   width="64"
   height="64"
   viewBox="0 0 16.933333 16.933333"
   version="1.1"
   id="svg1"
   inkscape:version="1.3 (0e150ed6c4, 2023-07-21)"
   xml:space="preserve"
   sodipodi:docname="AppLink-Parts.svg"
   xmlns:inkscape="http://www.inkscape.org/namespaces/inkscape"
   xmlns:sodipodi="http://sodipodi.sourceforge.net/DTD/sodipodi-0.dtd"
   xmlns:xlink="http://www.w3.org/1999/xlink"
   xmlns="http://www.w3.org/2000/svg"
   xmlns:svg="http://www.w3.org/2000/svg"><sodipodi:namedview
     id="namedview1"
     pagecolor="#505050"
     bordercolor="#eeeeee"
     borderopacity="1"
     inkscape:showpageshadow="0"
     inkscape:pageopacity="0"
     inkscape:pagecheckerboard="false"
     inkscape:deskcolor="#505050"
     inkscape:document-units="px"
     showgrid="true"
     inkscape:zoom="5.6568543"
     inkscape:cx="40.039921"
     inkscape:cy="-10.341437"
     inkscape:window-width="3440"
     inkscape:window-height="1369"
     inkscape:window-x="-8"
     inkscape:window-y="-8"
     inkscape:window-maximized="1"
     inkscape:current-layer="layer1"><inkscape:grid
       id="grid1"
       units="px"
       originx="0"
       originy="0"
       spacingx="0.26458333"
       spacingy="0.26458333"
       empcolor="#0099e5"
       empopacity="0.30196078"
       color="#0099e5"
       opacity="0.14901961"
       empspacing="5"
       dotted="false"
       gridanglex="30"
       gridanglez="30"
       visible="true" /></sodipodi:namedview><defs
     id="defs1"><linearGradient
       id="swatch7"
       inkscape:swatch="solid"><stop
         style="stop-color:#292600;stop-opacity:1;"
         offset="0"
         id="stop7" /></linearGradient><linearGradient
       id="swatch3"
       inkscape:swatch="solid"><stop
         style="stop-color:#2b2800;stop-opacity:1;"
         offset="0"
         id="stop3" /></linearGradient><linearGradient
       id="linearGradient1"
       inkscape:swatch="gradient"><stop
         style="stop-color:#000000;stop-opacity:1;"
         offset="0"
         id="stop1" /><stop
         style="stop-color:#ffdd00;stop-opacity:0;"
         offset="1"
         id="stop2" /></linearGradient><linearGradient
       inkscape:collect="always"
       id="linearGradient3783"><stop
         style="stop-color:#d3d7cf;stop-opacity:1"
         offset="0"
         id="stop3785" /><stop
         style="stop-color:#ffffff;stop-opacity:1"
         offset="1"
         id="stop3787" /></linearGradient><radialGradient
       inkscape:collect="always"
       xlink:href="#linearGradient3377"
       id="radialGradient3692"
       cx="45.883327"
       cy="28.869568"
       fx="45.883327"
       fy="28.869568"
       r="19.467436"
       gradientUnits="userSpaceOnUse" /><radialGradient
       inkscape:collect="always"
       xlink:href="#linearGradient3377"
       id="radialGradient3703"
       gradientUnits="userSpaceOnUse"
       cx="135.38333"
       cy="97.369568"
       fx="135.38333"
       fy="97.369568"
       r="19.467436"
       gradientTransform="matrix(0.97435,0.2250379,-0.4623105,2.0016728,48.487554,-127.99883)" /><linearGradient
       id="linearGradient3377"><stop
         id="stop3379"
         offset="0"
         style="stop-color:#faff2b;stop-opacity:1;" /><stop
         id="stop3381"
         offset="1"
         style="stop-color:#ffaa00;stop-opacity:1;" /></linearGradient><radialGradient
       inkscape:collect="always"
       xlink:href="#linearGradient3377"
       id="radialGradient3705"
       gradientUnits="userSpaceOnUse"
       cx="148.88333"
       cy="81.869568"
       fx="148.88333"
       fy="81.869568"
       r="19.467436"
       gradientTransform="matrix(1.3852588,-0.05136783,0.03705629,0.9993132,-60.392403,7.7040438)" /><inkscape:perspective
       sodipodi:type="inkscape:persp3d"
       inkscape:vp_x="0 : 32 : 1"
       inkscape:vp_y="0 : 1000 : 0"
       inkscape:vp_z="64 : 32 : 1"
       inkscape:persp3d-origin="32 : 21.333333 : 1"
       id="perspective2868" /><linearGradient
       inkscape:collect="always"
       xlink:href="#linearGradient3783"
       id="linearGradient3789"
       x1="38"
       y1="58"
       x2="21"
       y2="5"
       gradientUnits="userSpaceOnUse"
       gradientTransform="matrix(1,0,0,0.77777777,0,5.1111114)" /><linearGradient
       inkscape:collect="always"
       id="linearGradient3861"><stop
         style="stop-color:#3465a4;stop-opacity:1;"
         offset="0"
         id="stop3863" /><stop
         style="stop-color:#729fcf;stop-opacity:1"
         offset="1"
         id="stop3865" /></linearGradient><linearGradient
       inkscape:collect="always"
       xlink:href="#linearGradient3861"
       id="linearGradient4204"
       x1="220.23199"
       y1="452.43173"
       x2="178.23227"
       y2="89.727692"
       gradientUnits="userSpaceOnUse" /><linearGradient
       inkscape:collect="always"
       xlink:href="#linearGradient3774"
       id="linearGradient4316"
       gradientUnits="userSpaceOnUse"
       gradientTransform="matrix(-0.51964051,0,0,0.50042191,1386.3532,982.21378)"
       x1="288.11227"
       y1="358.15811"
       x2="372.52457"
       y2="7.5416322" /><linearGradient
       inkscape:collect="always"
       id="linearGradient3774"><stop
         style="stop-color:#4e9a06;stop-opacity:1"
         offset="0"
         id="stop3776" /><stop
         style="stop-color:#8ae234;stop-opacity:1"
         offset="1"
         id="stop3778" /></linearGradient><linearGradient
       inkscape:collect="always"
       xlink:href="#swatch7"
       id="linearGradient15"
       gradientUnits="userSpaceOnUse"
       gradientTransform="translate(-23.485902,12.832291)"
       x1="24.655856"
       y1="1.0045884"
       x2="29.368749"
       y2="1.0045884" /></defs><g
     inkscape:label="Layer 1"
     inkscape:groupmode="layer"
     id="layer1"><g
       id="layer1-2"
       inkscape:label="Layer 1"
       transform="matrix(0.26458333,0,0,0.26458333,-0.52916666,-1.5875)"><rect
         style="color:#000000;display:inline;overflow:visible;visibility:visible;fill:#ffffff;stroke:#2e3436;stroke-width:4;stroke-linecap:butt;stroke-linejoin:round;stroke-miterlimit:4;stroke-dasharray:none;stroke-dashoffset:0;stroke-opacity:1;marker:none;enable-background:accumulate"
         id="rect3002-9"
         width="56"
         height="44"
         x="4"
         y="8" /><rect
         style="color:#000000;display:inline;overflow:visible;visibility:visible;fill:url(#linearGradient3789);fill-opacity:1;stroke:#ffffff;stroke-width:2;stroke-linecap:butt;stroke-linejoin:round;stroke-miterlimit:4;stroke-dasharray:none;stroke-dashoffset:0;stroke-opacity:1;marker:none;enable-background:accumulate"
         id="rect3002-9-3"
         width="54"
         height="42"
         x="5"
         y="9" /><path
         style="fill:none;stroke:#2e3436;stroke-width:4;stroke-linecap:butt;stroke-linejoin:miter;stroke-miterlimit:4;stroke-dasharray:none;stroke-opacity:1"
         d="M 3,18 H 61"
         id="path3790"
         inkscape:connector-curvature="0"
         sodipodi:nodetypes="cc" /><path
         style="fill:none;stroke:#2e3436;stroke-width:4;stroke-linecap:butt;stroke-linejoin:miter;stroke-miterlimit:4;stroke-dasharray:none;stroke-opacity:1"
         d="M 22,6 V 54"
         id="path3792"
         inkscape:connector-curvature="0"
         sodipodi:nodetypes="cc" /><path
         style="fill:none;stroke:#2e3436;stroke-width:4;stroke-linecap:butt;stroke-linejoin:miter;stroke-miterlimit:4;stroke-dasharray:none;stroke-opacity:1"
         d="M 3,30 H 61"
         id="path3794"
         inkscape:connector-curvature="0"
         sodipodi:nodetypes="cc" /><path
         style="fill:none;stroke:#2e3436;stroke-width:4;stroke-linecap:butt;stroke-linejoin:miter;stroke-miterlimit:4;stroke-dasharray:none;stroke-opacity:1"
         d="M 3,42 H 61"
         id="path3796"
         inkscape:connector-curvature="0"
         sodipodi:nodetypes="cc" /></g><g
       id="g1"
       transform="matrix(0.16627989,0,0,0.16627989,6.974938,7.1156564)"><g
         id="g4"
         style="fill:#205493;stroke:#0b1521;stroke-width:17.0306;stroke-miterlimit:4;stroke-dasharray:none;stroke-opacity:1"
         transform="matrix(0.11712934,0,0,0.12658345,6.3540226,-2.7048542)"><path
           style="fill:url(#linearGradient4204);fill-opacity:1;stroke:#0b1521;stroke-width:17.1343;stroke-miterlimit:4;stroke-dasharray:none;stroke-opacity:1"
           d="m 191.68535,68.991034 c -25.01113,0.825185 25.55018,0.03509 0.25466,0.363792 -43.36411,0.212557 -75.47638,-0.692241 -118.824699,0.06442 -43.079122,3.698128 -79.7652904,44.484054 -76.9336704,88.026064 -0.4439575,75.47002 -0.051566,150.94383 -0.1459621,226.41396 -0.5002276,16.57633 1.0512879,33.72441 9.3462972,48.45039 15.1024633,29.2002 47.5748333,49.03481 80.7098203,46.74393 81.071924,-0.21153 162.166794,0.57106 243.224554,-0.41015 43.22514,-3.74522 79.42489,-45.02726 76.62401,-88.51258 -0.22056,-30.91559 1.31867,-13.51025 0.0795,-44.36085 -2.34002,-8.22613 -12.14001,-10.33714 -19.54688,-8.83594 -7.75802,-0.46323 -18.74559,-1.78474 -22.87891,6.63477 -3.83588,9.4189 -0.29725,19.57848 -1.61914,29.34375 -0.40461,25.86461 0.59366,3.47835 -1.47293,29.2046 -4.3795,20.76154 -25.86566,35.21453 -46.75585,32.40721 -79.28903,-0.25751 -158.60963,0.5384 -237.878912,-0.41112 -21.612075,-2.81679 -38.071154,-24.76126 -35.322258,-46.2832 0.263584,-79.62158 -0.544254,-159.27571 0.416008,-238.87696 2.816182,-21.62523 24.76226,-38.04333 46.289061,-35.32265 66.459691,-0.23376 45.553841,0.63643 111.988081,-0.21561 8.31737,-1.76623 8.5373,-12.68319 9.56641,-18.996089 0.22106,-7.774814 2.06378,-18.411454 -5.84961,-23.224609 -3.44384,-1.838988 -7.42123,-2.284442 -11.26958,-2.203125 z"
           id="path6"
           inkscape:connector-curvature="0"
           sodipodi:nodetypes="ccccccccccccccccccccccc" /></g><g
         id="g4310"
         transform="matrix(0.17927335,0,0,0.15851532,-179.76271,-149.67938)"><path
           id="path4312"
           d="m 1145.5648,1074.1543 c 18.5937,-18.383 48.2169,-28.9064 88.8688,-31.5737 v -37.4326 c 0,-4.0003 1.9294,-6.80966 5.7868,-8.43006 4.0547,-1.61639 7.5171,-0.95178 10.3849,2.00121 l 75.9581,73.15065 c 1.8799,1.8121 2.8184,3.9543 2.8184,6.4303 0,2.4767 -0.9389,4.6185 -2.8184,6.429 l -75.9602,73.1502 c -1.7833,1.81 -4.0064,2.7148 -6.6772,2.7148 -1.1865,0 -2.4222,-0.2382 -3.7083,-0.7141 -3.8572,-1.6204 -5.7882,-4.4273 -5.7882,-8.4296 v -35.8618 c -15.9228,1.2386 -29.1503,3.7387 -39.6881,7.5008 -10.5331,3.7627 -18.9637,9.0247 -25.2946,15.7879 -14.738,15.7158 -19.9806,42.6214 -15.7274,80.7237 0.1953,2.4775 -0.9389,4.0963 -3.4125,4.858 -0.2967,0.097 -0.7414,0.142 -1.3349,0.142 -1.9778,0 -3.361,-0.8095 -4.154,-2.4285 l -2.9667,-5.7148 c -1.3832,-2.6676 -3.3858,-6.9784 -6.007,-12.9313 -2.6194,-5.9556 -4.9969,-11.9071 -7.1237,-17.8612 -2.1269,-5.9515 -4.0298,-12.5235 -5.7119,-19.7147 -1.6805,-7.194 -2.5219,-13.5508 -2.5219,-19.074 0,-32.0039 8.3606,-56.2428 25.078,-72.7222 z"
           inkscape:connector-curvature="0"
           style="opacity:1;fill:#8ae234;fill-opacity:1;stroke:#172a04;stroke-width:14.8302;stroke-miterlimit:4;stroke-dasharray:none;stroke-opacity:1" /><path
           style="opacity:1;fill:url(#linearGradient4316);fill-opacity:1;stroke:none;stroke-width:34.7533;stroke-miterlimit:4;stroke-dasharray:none;stroke-opacity:1"
           d="m 1252.6459,1025.0625 c 18.4441,17.7617 37.1632,35.1962 55.3062,53.3235 -19.0906,18.0067 -37.542,36.7844 -56.7747,54.6184 -0.018,-12.2743 -0.087,-24.5491 0.032,-36.8231 -26.4463,1.6409 -53.9694,3.575 -77.8197,17.2303 -17.0095,9.5803 -28.4884,27.8106 -34.5388,47.088 -3.5743,-21.5969 -1.2897,-45.3408 10.607,-63.6609 11.0273,-16.9013 29.5358,-25.7267 47.629,-30.3404 14.7839,-4.3279 30.2561,-4.0127 45.1276,-7.7257 7.8392,-4.3982 10.4187,-14.9284 9.2176,-23.8416 -0.062,-3.7919 -0.2886,-7.6325 -0.4323,-11.451 0.5488,0.5275 1.0977,1.055 1.6465,1.5825 z"
           id="path4314"
           inkscape:connector-curvature="0" /></g></g><text
       xml:space="preserve"
       style="font-style:normal;font-variant:normal;font-weight:bold;font-stretch:normal;font-size:8.46667px;font-family:'Segoe UI';-inkscape-font-specification:'Segoe UI, Bold';font-variant-ligatures:normal;font-variant-caps:normal;font-variant-numeric:normal;font-variant-east-asian:normal;fill:#ff6600;fill-opacity:1;fill-rule:evenodd;stroke:url(#linearGradient15);stroke-width:0.264583;stroke-linecap:butt;paint-order:markers fill stroke"
       x="1.0417963"
       y="16.801041"
       id="text6"><tspan
         sodipodi:role="line"
         id="tspan15">P</tspan></text></g></svg>
